# xmcd CD database file
#
# Track frame offsets:
#	150
#	1103
#	6074
#	18082
#	36177
#	45156
#	57013
#	67088
#	78304
#	110160
#	131313
#	150187
#	156275
#	192166
#	211960
#	240754
#	256962
#	282201
#
# Disc length: 3822 seconds
#
# Revision: 1
# Processed by: cddbd v1.5.2PL0 Copyright (c) Steve Scherf et al.
# Submitted via: jetAudio 5
#
DISCID=d00eec12
DTITLE=Slam - Soma Anniversary Mix
DYEAR=2006
DGENRE=House - Electro
TTITLE0=The Black Dog - Mental Ward
TTITLE1=Alex Smoke - Intro
TTITLE2=Vector Lovers - Nostalgia 4 The Future (Transparent Sound Mix 2
TTITLE2=)
TTITLE3=Alex Smoke - Meany (Matt John Remix)
TTITLE4=Funk D Void - Can't Get Enough Of A Bad Thing (Steve Bug Mix)
TTITLE5=Slam - Positive Education (Richie Hawtin's Stripped Mix)
TTITLE6=The Separatists - Krockit
TTITLE7=The Separatists - Shake U Down
TTITLE8=Alex Smoke - Snider
TTITLE9=Funk D Void and Phil Kieran - Black Worm
TTITLE10=My Robot Friend - Dial Zero (Modeselektor Remix)
TTITLE11=Schatrax - Mispent Years (Silicone Soul Mix)
TTITLE12=Slam - Groovelock
TTITLE13=Adam Beyer and Jesper Dahlback - Redemption
TTITLE14=Repeat Repeat - City Of Angels
TTITLE15=Funk D Void and Phil Kieran - White Lice (Lee Van Dowski Remix)
TTITLE16=Skintrade - Andomraxxes
TTITLE17=Repeat Repeat - Bombadier
EXTD=http://www.aerosolart.sk
EXTT0=
EXTT1=
EXTT2=
EXTT3=
EXTT4=
EXTT5=
EXTT6=
EXTT7=
EXTT8=
EXTT9=
EXTT10=
EXTT11=
EXTT12=
EXTT13=
EXTT14=
EXTT15=
EXTT16=
EXTT17=
PLAYORDER=
